<svg xmlns="http://www.w3.org/2000/svg" width="67.9mm" height="28.9mm" viewBox="0 0 67.9 28.9">
  <path d="M11.084 2.832 C9.056 2.832 8.06 2.964 7.132 3.308 C5.252 4.044 4.216 5.468 4.216 7.324 C4.216 7.756 4.26 7.996 4.412 8.556 L6.052 7.8 C5.924 7.068 5.88 6.72 5.88 6.244 C5.88 4.56 6.764 3.652 8.428 3.652 L8.752 3.652 L7.564 8.404 C7.155 8.752 7.088 8.816 6.7 9.204 C7.024 9.42 7.112 9.528 7.22 9.832 L6.96 10.696 C6.291 13.156 6.291 13.156 6.224 13.332 C5.967 14.152 5.643 14.864 5.319 15.276 C4.712 16.072 3.872 16.484 2.812 16.484 C2.38 16.484 2.056 16.44 1.364 16.268 L0.5 17.716 C0.912 17.8 1.107 17.824 1.452 17.824 C2.792 17.824 3.72 17.368 5.751 15.772 C7.564 14.324 7.736 14.044 8.384 11.428 L10.372 3.46 L11.084 2.832 Z M18.819 8.296 C18.819 7.132 18.019 6.312 16.875 6.312 C16.011 6.312 14.628 6.936 13.352 7.888 C11.971 8.924 10.999 11.172 10.999 13.308 C10.999 14.628 11.732 15.468 12.879 15.468 C13.483 15.468 14.088 15.252 15.08 14.736 C16.16 14.128 16.875 13.588 17.263 13.072 C18.127 11.904 18.819 9.788 18.819 8.296 Z M17.155 9.464 C17.155 10.372 16.852 11.496 16.312 12.552 C15.708 13.784 14.931 14.452 14.108 14.452 C13.224 14.452 12.663 13.656 12.663 12.424 C12.663 9.916 14.239 7.324 15.751 7.324 C16.615 7.324 17.155 8.168 17.155 9.464 Z M25.903 7.044 C25.471 6.528 25.06 6.312 24.455 6.312 C22.879 6.312 20.848 8.188 20.848 9.616 C20.848 10.284 21.195 10.804 22.015 11.388 C23.095 12.144 23.247 12.336 23.247 12.876 C23.247 13.656 22.252 14.56 21.411 14.56 C20.935 14.56 20.567 14.304 20.351 13.828 C20.2 13.504 20.156 13.18 20.135 12.444 C19.899 12.616 19.724 12.724 19.639 12.792 C19.467 12.9 19.272 13.008 19.076 13.136 C19.076 13.136 18.904 13.244 18.688 13.396 C18.667 13.588 18.644 13.764 18.644 13.892 C18.644 14.82 19.292 15.468 20.243 15.468 C20.912 15.468 21.843 15.188 22.532 14.8 C23.807 14.064 24.584 12.964 24.584 11.884 C24.584 11.084 24.435 10.912 23.224 10.156 C22.491 9.68 22.187 9.268 22.187 8.708 C22.187 7.972 22.815 7.324 23.548 7.324 C24.044 7.324 24.412 7.564 24.887 8.168 C25.623 7.456 25.623 7.456 25.903 7.044 Z M32.923 12.9 L32.923 12.272 C32.123 12.92 30.591 14.236 29.488 14.236 C28.279 14.236 28.171 12.94 28.192 12.1 C28.688 11.86 30.807 10.264 31.239 9.94 C32.036 9.292 32.619 8.6 32.619 7.584 C32.619 6.872 32.187 6.332 31.388 6.332 C30.611 6.332 29.943 6.72 29.164 7.324 C27.263 8.796 26.595 11.212 26.595 13.244 C26.595 14.56 27.135 15.492 28.451 15.492 C30.115 15.492 32.036 13.784 32.923 12.9 Z M31.023 8.188 C31.023 9.744 29.251 10.632 28.215 11.428 C28.3 10.348 29.12 7.284 30.351 7.284 C30.827 7.284 31.023 7.716 31.023 8.188 Z M43.699 0.628 C43.267 0.52 43.095 0.5 42.663 0.5 C41.367 0.5 40.459 0.976 39.015 2.38 C37.803 3.544 37.523 4.192 36.68 7.78 L34.867 7.78 C34.736 7.864 34.607 7.952 34.563 7.972 L34.088 8.232 C34.003 8.276 33.831 8.364 33.656 8.472 L36.507 8.472 L35.623 12.252 C34.327 18.192 33.831 19.164 31.995 19.164 C31.691 19.164 31.431 19.14 30.848 19.056 C30.632 19.38 30.567 19.488 30.416 19.68 C30.243 19.92 30.051 20.156 29.876 20.416 C30.351 20.48 30.591 20.5 30.935 20.5 C31.647 20.5 32.211 20.392 32.555 20.2 C33.183 19.852 34.283 18.796 34.867 18.04 C35.535 17.132 36.315 15.276 36.811 13.308 L38.084 8.472 L40.007 8.472 L40.891 7.78 L39.531 7.756 L38.259 7.78 C39.663 2.292 39.987 1.624 41.259 1.624 C41.627 1.624 41.907 1.668 42.707 1.796 L43.699 0.628 Z M45.579 13.244 L45.667 12.596 C44.607 13.244 43.551 13.784 43.355 13.784 C43.119 13.784 42.943 13.524 42.943 13.18 C42.943 12.4 43.203 11.58 43.399 10.76 L44.067 8.016 C44.175 7.564 44.347 6.872 44.347 6.612 C44.347 6.44 44.283 6.332 44.091 6.332 C43.591 6.332 41.347 7.8 40.699 8.232 L40.675 8.86 C41.175 8.58 41.951 8.06 42.255 8.06 C42.491 8.06 42.511 8.296 42.511 8.492 C42.511 8.968 42.039 10.564 41.799 11.56 C41.563 12.552 41.175 13.568 41.175 14.54 C41.175 15.1 41.391 15.448 41.735 15.448 C42.103 15.448 42.491 15.252 43.743 14.432 C44.091 14.196 44.263 14.064 45.579 13.244 Z M45.731 3.22 C45.343 2.596 45.319 2.532 45.103 2.032 C45.083 1.948 45.039 1.84 44.995 1.752 C44.867 1.86 44.779 1.924 44.695 1.992 C44.111 2.488 44.067 2.508 43.507 2.896 C43.679 3.416 43.831 3.676 44.327 4.408 L45.039 3.76 C45.171 3.676 45.235 3.612 45.731 3.22 Z M55.343 12.424 C53.183 13.656 53.095 13.696 52.879 13.696 C52.663 13.696 52.535 13.46 52.535 13.116 C52.535 12.66 52.687 11.948 53.095 10.456 C54.111 6.828 54.111 6.828 54.111 6.676 C54.111 6.44 53.959 6.312 53.679 6.312 C53.355 6.312 52.879 6.504 52.103 7.0 L49.143 8.836 C49.339 8.124 49.663 6.764 49.663 6.592 C49.663 6.44 49.531 6.312 49.383 6.312 C49.143 6.312 47.587 7.108 45.991 8.06 L45.859 8.62 C47.243 7.996 47.331 7.972 47.523 7.972 C47.675 7.972 47.783 8.104 47.783 8.276 C47.783 8.728 47.371 10.524 46.831 12.488 L46.335 14.236 L46.035 15.404 L47.655 14.776 L48.927 9.7 C51.627 7.996 51.691 7.972 51.995 7.972 C52.147 7.972 52.231 8.08 52.231 8.256 C52.231 8.58 52.059 9.4 51.435 11.86 C50.959 13.784 50.871 14.152 50.871 14.56 C50.871 14.864 50.959 15.144 51.195 15.532 C52.191 15.08 53.679 14.152 55.191 13.028 L55.343 12.424 Z M62.299 12.9 L62.299 12.272 C61.499 12.92 59.967 14.236 58.863 14.236 C57.655 14.236 57.547 12.94 57.567 12.1 C58.063 11.86 60.183 10.264 60.615 9.94 C61.411 9.292 61.995 8.6 61.995 7.584 C61.995 6.872 61.563 6.332 60.763 6.332 C59.987 6.332 59.319 6.72 58.539 7.324 C56.639 8.796 55.971 11.212 55.971 13.244 C55.971 14.56 56.511 15.492 57.827 15.492 C59.491 15.492 61.411 13.784 62.299 12.9 Z M60.399 8.188 C60.399 9.744 58.627 10.632 57.591 11.428 C57.675 10.348 58.495 7.284 59.727 7.284 C60.203 7.284 60.399 7.716 60.399 8.188 Z" fill="#1F3A5F" fill-rule="nonzero"></path>
  <path d="M1.5 25.5 C20.5 31.5 46.5 21.5 66.5 27.5" fill="none" stroke="#1F3A5F" stroke-width="0.9" stroke-linecap="round" stroke-linejoin="round"></path>
</svg>