<svg xmlns="http://www.w3.org/2000/svg" xmlns:xlink="http://www.w3.org/1999/xlink" width="700" zoomAndPan="magnify" viewBox="0 0 525 525.000007" height="700" preserveAspectRatio="xMidYMid meet" version="1.0"><defs><filter x="0%" y="0%" width="100%" height="100%" id="c883647b84"><feColorMatrix values="0 0 0 0 1 0 0 0 0 1 0 0 0 0 1 0 0 0 1 0" color-interpolation-filters="sRGB"></feColorMatrix></filter><filter x="0%" y="0%" width="100%" height="100%" id="71b55129d2"><feColorMatrix values="0 0 0 0 1 0 0 0 0 1 0 0 0 0 1 0.2126 0.7152 0.0722 0 0" color-interpolation-filters="sRGB"></feColorMatrix></filter><clipPath id="f24910c961"><path d="M 191.027344 190.53125 L 333.628906 190.53125 L 333.628906 333 L 191.027344 333 Z M 191.027344 190.53125 " clip-rule="nonzero"></path></clipPath><clipPath id="043b6a6892"><path d="M 262.328125 190.632812 C 223.0625 190.632812 191.234375 222.460938 191.234375 261.726562 C 191.234375 300.988281 223.0625 332.820312 262.328125 332.820312 C 301.59375 332.820312 333.421875 300.988281 333.421875 261.726562 C 333.421875 222.460938 301.59375 190.632812 262.328125 190.632812 Z M 262.328125 190.632812 " clip-rule="nonzero"></path></clipPath><image x="0" y="0" width="355" id="7d38e1aa13" height="362" preserveAspectRatio="xMidYMid meet"></image><mask id="628a80586b"><g filter="url(#c883647b84)"><g filter="url(#71b55129d2)" transform="matrix(0.804346, 0, 0, 0.80398, 118.063577, 117.801702)"><image x="0" y="0" width="355" height="362" preserveAspectRatio="xMidYMid meet"></image></g></g></mask><image x="0" y="0" width="355" id="dca2eb6b7b" height="362" preserveAspectRatio="xMidYMid meet"></image></defs><g clip-path="url(#f24910c961)"><g clip-path="url(#043b6a6892)"><g mask="url(#628a80586b)"><g transform="matrix(0.804346, 0, 0, 0.80398, 118.063577, 117.801702)"><image x="0" y="0" width="355" height="362" preserveAspectRatio="xMidYMid meet"></image></g></g></g></g></svg>