<?xml version="1.0"?>
<svg viewBox="0 0 213 24" version="1.1" xmlns="http://www.w3.org/2000/svg" xmlns:xlink="http://www.w3.org/1999/xlink">
    <title>Native Spirit</title>
    <defs>
        <polygon id="path-1" points="0 -0.000324000013 212.841764 -0.000324000013 212.841764 23.2121169 0 23.2121169"></polygon>
    </defs>
    <g stroke="none" stroke-width="1" fill="none" fill-rule="evenodd">
        <g transform="translate(-146.000000, -40.000000)">
            <g transform="translate(146.000000, 40.000000)">
                <mask id="mask-2" fill="white">
                    <use xlink:href="#path-1"></use>
                </mask>
                <g></g>
                <path d="M212.841764,9.19663237 L212.841764,8.05075232 L210.899924,8.05075232 L210.899924,4.84855219 L209.670884,4.84855219 L209.670884,8.05075232 L208.692404,8.05075232 L208.692404,9.19663237 L209.670884,9.19663237 L209.670884,14.0760726 C209.670884,15.8008326 210.418244,16.6637527 211.912964,16.6637527 C212.343884,16.6637527 212.659244,16.6140727 212.841764,16.5309127 L212.841764,15.4692726 C212.625764,15.5027526 212.376284,15.5189526 212.060924,15.5189526 C211.247684,15.5189526 210.899924,15.1377126 210.899924,14.0760726 L210.899924,9.19663237 L212.841764,9.19663237 Z M196.527284,14.6225526 L196.527284,8.05075232 L195.299324,8.05075232 L195.299324,14.8385526 C195.299324,16.0168326 195.797204,16.6140727 196.808084,16.6140727 C197.123444,16.6140727 197.389124,16.5643927 197.588924,16.4812327 L197.588924,15.4692726 C197.438804,15.4854726 197.290844,15.5027526 197.158004,15.5027526 C196.692524,15.5027526 196.527284,15.2370726 196.527284,14.6225526 L196.527284,14.6225526 Z M196.492724,6.42535226 C196.825364,6.09271224 196.825364,5.56243222 196.492724,5.24707221 C196.162244,4.9144322 195.664364,4.9144322 195.331724,5.24707221 C194.999084,5.56243222 194.999084,6.09271224 195.331724,6.42535226 C195.664364,6.74071227 196.162244,6.74071227 196.492724,6.42535226 L196.492724,6.42535226 Z M180.892123,9.46231238 L180.892123,8.05075232 L179.664163,8.05075232 L179.664163,16.4153527 L180.892123,16.4153527 L180.892123,11.5531925 C180.892123,10.1589124 181.838203,9.19663237 183.149323,9.19663237 C183.480883,9.19663237 183.762763,9.22903237 183.978763,9.27871237 L183.978763,7.95247232 C183.829723,7.93519232 183.647203,7.91791231 183.464683,7.91791231 C182.252923,7.91791231 181.340323,8.53243234 180.892123,9.46231238 L180.892123,9.46231238 Z M167.499043,14.6225526 L167.499043,8.05075232 L166.271083,8.05075232 L166.271083,14.8385526 C166.271083,16.0168326 166.768963,16.6140727 167.779843,16.6140727 C168.095203,16.6140727 168.360883,16.5643927 168.560683,16.4812327 L168.560683,15.4692726 C168.410563,15.4854726 168.262603,15.5027526 168.129763,15.5027526 C167.664283,15.5027526 167.499043,15.2370726 167.499043,14.6225526 L167.499043,14.6225526 Z M167.464483,6.42535226 C167.797123,6.09271224 167.797123,5.56243222 167.464483,5.24707221 C167.134003,4.9144322 166.636123,4.9144322 166.303483,5.24707221 C165.971923,5.56243222 165.971923,6.09271224 166.303483,6.42535226 C166.636123,6.74071227 167.134003,6.74071227 167.464483,6.42535226 L167.464483,6.42535226 Z M152.859642,14.5890726 C152.294802,15.2035926 151.582002,15.5189526 150.719082,15.5189526 C149.822682,15.5189526 149.076402,15.2035926 148.479162,14.5890726 C147.898122,13.9594326 147.600042,13.1796725 147.600042,12.2335925 C147.600042,11.2875124 147.898122,10.5077524 148.479162,9.89431239 C149.076402,9.26359237 149.822682,8.94823236 150.719082,8.94823236 C151.582002,8.94823236 152.294802,9.26359237 152.859642,9.89431239 C153.440682,10.5077524 153.723642,11.2875124 153.723642,12.2335925 C153.723642,13.1796725 153.440682,13.9594326 152.859642,14.5890726 L152.859642,14.5890726 Z M150.719082,7.80235231 C149.209242,7.80235231 148.230762,8.45035234 147.749082,9.29599237 L147.749082,8.05075232 L146.521122,8.05075232 L146.521122,19.6175528 L147.749082,19.6175528 L147.749082,15.1701126 C148.230762,16.0168326 149.209242,16.6637527 150.719082,16.6637527 C151.897362,16.6637527 152.910402,16.2490326 153.723642,15.4023126 C154.536882,14.5566726 154.950522,13.4939525 154.950522,12.2335925 C154.950522,10.9721524 154.536882,9.92671239 153.723642,9.08107236 C152.910402,8.23327233 151.897362,7.80235231 150.719082,7.80235231 L150.719082,7.80235231 Z M132.877481,11.5197125 C131.616041,11.0380324 131.052281,10.6902724 131.052281,10.0098724 C131.052281,9.32947237 131.583641,8.93095235 132.362321,8.93095235 C133.010321,8.93095235 133.475801,9.21391237 133.773881,9.76039239 L134.769641,9.24631237 C134.289041,8.28295233 133.475801,7.80235231 132.347201,7.80235231 C130.869761,7.80235231 129.824321,8.73115235 129.824321,10.0098724 C129.824321,11.2205524 130.570601,11.8512725 132.097721,12.4495925 C132.877481,12.7649525 133.425041,13.0295525 133.724201,13.2455525 C134.039561,13.4615525 134.188601,13.7758325 134.188601,14.1916326 C134.188601,14.8385526 133.724201,15.4692726 132.347201,15.4692726 C131.201321,15.4692726 130.455041,14.9217126 130.239041,14.2089126 L129.193601,14.6063526 C129.525161,15.8839926 130.753121,16.6140727 132.347201,16.6140727 C134.338721,16.6140727 135.417641,15.5189526 135.417641,14.1916326 C135.417641,12.9129125 134.604401,12.1839125 132.877481,11.5197125 L132.877481,11.5197125 Z M50.234798,5.23087221 C50.612798,4.85287219 50.612798,4.24807217 50.234798,3.88843215 C49.856798,3.51043214 49.289798,3.51043214 48.9117979,3.88843215 C48.5337979,4.24807217 48.5337979,4.85287219 48.9117979,5.23087221 C49.289798,5.58943222 49.856798,5.58943222 50.234798,5.23087221 L50.234798,5.23087221 Z M50.273678,14.5685526 L50.273678,7.08307228 L48.8739979,7.08307228 L48.8739979,14.8137126 C48.8739979,16.1561526 49.440998,16.8365527 50.594438,16.8365527 C50.954078,16.8365527 51.256478,16.7793127 51.483278,16.6853527 L51.483278,15.5319126 C51.312638,15.5513526 51.141998,15.5697126 50.991878,15.5697126 C50.461598,15.5697126 50.273678,15.2673126 50.273678,14.5685526 L50.273678,14.5685526 Z M63.1051585,14.3417526 L60.0249984,7.08307228 L58.5507983,7.08307228 L62.6331985,16.6097527 L63.5976385,16.6097527 L67.6800387,7.08307228 L66.1863986,7.08307228 L63.1051585,14.3417526 Z M24.267277,14.5296726 C23.6052369,15.2295126 22.7541969,15.5891526 21.7335969,15.5891526 C20.7507968,15.5891526 19.9386368,15.2295126 19.2765968,14.5296726 C18.6339967,13.8114725 18.3121567,12.9237125 18.3121567,11.8458725 C18.3121567,10.7691124 18.6339967,9.88135239 19.2765968,9.18043236 C19.9386368,8.46223234 20.7507968,8.10367232 21.7335969,8.10367232 C22.7541969,8.10367232 23.6052369,8.46223234 24.267277,9.18043236 C24.946597,9.88135239 25.287877,10.7691124 25.287877,11.8458725 C25.287877,12.9237125 24.946597,13.8114725 24.267277,14.5296726 L24.267277,14.5296726 Z M26.5169171,14.4745926 L26.5169171,7.08307228 L25.117237,7.08307228 L25.117237,8.50003234 C24.569677,7.5366723 23.4540369,6.79903227 21.7335969,6.79903227 C20.3922368,6.79903227 19.2387968,7.29043229 18.3121567,8.25487233 C17.3855167,9.21931237 16.9135567,10.4094724 16.9135567,11.8458725 C16.9135567,13.2822725 17.3855167,14.4918726 18.3121567,15.4573926 C19.2387968,16.4207527 20.3922368,16.8937927 21.7335969,16.8937927 C23.3222769,16.8937927 24.474637,16.3267926 25.192837,15.2111526 C25.250077,15.8343126 25.476877,16.2879126 25.835437,16.5719527 C26.080597,16.7415127 26.421877,16.8365527 26.8365971,16.8365527 C27.1962371,16.8365527 27.4997171,16.7793127 27.7265171,16.6853527 L27.7265171,15.6269526 C27.5547971,15.6463926 27.3852371,15.6647526 27.2351171,15.6647526 C26.7048371,15.6647526 26.5169171,15.3051126 26.5169171,14.4745926 L26.5169171,14.4745926 Z M37.9886775,3.43483214 L36.5900775,3.43483214 L36.5900775,7.08307228 L35.4744374,7.08307228 L35.4744374,8.38771233 L36.5900775,8.38771233 L36.5900775,13.9443126 C36.5900775,15.9109926 37.4411175,16.8937927 39.1410376,16.8937927 C39.6324376,16.8937927 39.9920776,16.8365527 40.1994376,16.7415127 L40.1994376,15.5319126 C39.9542776,15.5697126 39.6702376,15.5891526 39.3116776,15.5891526 C38.3861175,15.5891526 37.9886775,15.1549926 37.9886775,13.9443126 L37.9886775,8.38771233 L40.1994376,8.38771233 L40.1994376,7.08307228 L37.9886775,7.08307228 L37.9886775,3.43483214 Z M7.88151631,14.4551526 L7.88151631,10.5239524 C7.88151631,8.34991233 6.53907626,6.93187228 4.40283617,6.93187228 C2.98479612,6.93187228 1.90803608,7.6317123 1.39827606,8.68903235 L1.39827606,7.08307228 L-0.000324000013,7.08307228 L-0.000324000013,16.6097527 L1.39827606,16.6097527 L1.39827606,10.9203124 C1.39827606,9.33271237 2.4750361,8.23543233 4.04427616,8.23543233 C5.55627622,8.23543233 6.48291626,9.23767237 6.48291626,10.8263524 L6.48291626,14.5491126 C6.48291626,16.4585527 7.5596763,16.6669927 8.29623633,16.6669927 C8.54247634,16.6669927 8.74983635,16.6291927 8.90211635,16.5719527 L8.90211635,15.4195926 C8.74983635,15.4379526 8.63751634,15.4573926 8.54247634,15.4573926 C7.99383632,15.4573926 7.88151631,15.2295126 7.88151631,14.4551526 L7.88151631,14.4551526 Z M104.23804,7.76347231 L99.75604,-0.000648000026 C95.4900398,2.4639121 94.0277197,7.91791231 96.4922798,12.1849925 C98.9546799,16.4509927 104.40976,17.9122327 108.67576,15.4487526 L113.15776,23.2128729 C117.423761,20.7483128 118.886081,15.2943126 116.422601,11.0272324 C113.959121,6.76123227 108.50512,5.29999221 104.23804,7.76347231 L104.23804,7.76347231 Z M76.581399,10.9203124 C76.638639,10.1448724 76.9777591,9.48391238 77.6019991,8.93527236 C78.2251591,8.38771233 78.9822391,8.10367232 79.8516392,8.10367232 C80.6454392,8.10367232 81.3258392,8.38771233 81.8928393,8.93527236 C82.4598393,9.48391238 82.7438793,10.1448724 82.7438793,10.9203124 L76.581399,10.9203124 Z M79.8516392,6.79903227 C78.4713991,6.79903227 77.3190391,7.27207229 76.430199,8.19871233 C75.541359,9.12535236 75.087759,10.3533124 75.087759,11.8836725 L75.087759,11.9603525 C75.087759,13.4345525 75.522999,14.6247126 76.411839,15.5135526 C77.2995991,16.4023927 78.4713991,16.8559927 79.8894392,16.8559927 C81.4586792,16.8559927 82.7438793,16.2879126 83.7450393,15.1733526 L82.8183993,14.2650726 C81.9684393,15.1733526 81.1940792,15.5891526 79.8894392,15.5891526 C77.9054791,15.5891526 76.561959,14.2477926 76.486359,12.1482725 L84.2180793,12.1482725 C84.2364393,11.9603525 84.2364393,11.7519125 84.2364393,11.5445525 C84.2364393,10.2021124 83.8206393,9.08647236 83.0084793,8.18035233 C82.1952393,7.25263229 81.1551992,6.79903227 79.8516392,6.79903227 L79.8516392,6.79903227 Z" id="Fill-1" fill="#333F48" mask="url(#mask-2)"></path>
            </g>
        </g>
    </g>
</svg>