<?xml version="1.0"?>
<svg id="Lager_2" data-name="Lager 2" xmlns="http://www.w3.org/2000/svg" viewBox="0 0 2058.79 398.08">
  <defs>
    
  </defs>
  <g id="Lager_1-2" data-name="Lager 1">
    <g>
      <path class="cls-1" d="M1480.14,384.39c-8.25-9.13-12.37-23.85-12.37-44.15v-19.83h40.19v25.26c0,10.08,3.25,15.11,9.75,15.11,3.65,0,6.18-1.06,7.61-3.19,1.43-2.12,2.14-5.7,2.14-10.74,0-6.61-.8-12.08-2.38-16.41-1.59-4.33-3.61-7.95-6.06-10.86-2.46-2.91-6.86-7.44-13.2-13.58l-17.6-17.47c-13.64-13.22-20.46-27.86-20.46-43.91,0-17.31,4-30.49,12.01-39.54,8-9.05,19.7-13.57,35.08-13.57,18.39,0,31.63,4.84,39.72,14.52,8.09,9.68,12.13,24.83,12.13,45.45h-41.62l-.24-13.93c0-2.68-.75-4.8-2.26-6.38-1.51-1.57-3.61-2.36-6.3-2.36-3.17,0-5.55.87-7.14,2.6-1.59,1.73-2.38,4.09-2.38,7.08,0,6.61,3.8,13.46,11.42,20.54l23.78,22.66c5.55,5.35,10.15,10.43,13.8,15.23,3.65,4.8,6.58,10.47,8.8,17,2.22,6.53,3.33,14.28,3.33,23.25,0,19.99-3.69,35.14-11.06,45.45-7.37,10.31-19.54,15.46-36.51,15.46-18.55,0-31.95-4.56-40.19-13.69Z"></path>
      <path class="cls-1" d="M1599.06,396.2v-163.84h-24.26v-38.96h89.43v38.96h-24.26v163.84h-40.91Z"></path>
      <path class="cls-1" d="M1685.51,383.92c-8.17-9.44-12.25-23.45-12.25-42.02v-148.5h39.72v146.85c0,6.46.63,11.49,1.9,15.11,1.27,3.62,3.96,5.43,8.09,5.43s6.81-1.77,8.08-5.31c1.27-3.54,1.9-8.62,1.9-15.23v-146.85h39.72v148.5c0,18.57-4.08,32.58-12.25,42.02-8.17,9.44-20.66,14.17-37.46,14.17s-29.3-4.72-37.46-14.17Z"></path>
      <path class="cls-1" d="M1788.37,193.4h56.37c14.59,0,25.53,4.01,32.82,12.04,7.29,8.03,11.02,19.91,11.18,35.65l.47,94.91c.16,19.99-3.33,35.02-10.46,45.09-7.14,10.08-18.95,15.11-35.44,15.11h-54.94v-202.8ZM1836.65,360.31c7.45,0,11.18-3.62,11.18-10.86v-104.59c0-4.56-.36-7.99-1.07-10.27-.71-2.28-2.02-3.81-3.93-4.6-1.9-.79-4.84-1.18-8.8-1.18h-4.52v131.5h7.13Z"></path>
      <path class="cls-1" d="M1903.73,396.2v-202.8h39.48v202.8h-39.48Z"></path>
      <path class="cls-1" d="M1970.79,383.09c-8.56-9.99-12.84-24.04-12.84-42.14v-96.56c0-17.47,4.28-30.65,12.84-39.54,8.56-8.89,21.08-13.34,37.58-13.34s29.02,4.45,37.58,13.34c8.56,8.89,12.84,22.07,12.84,39.54v96.56c0,18.26-4.28,32.34-12.84,42.26-8.56,9.92-21.09,14.87-37.58,14.87s-29.02-5-37.58-14.99ZM2015.74,356.06c1.27-3.15,1.9-7.55,1.9-13.22v-99.16c0-4.4-.59-7.99-1.78-10.74-1.19-2.75-3.61-4.13-7.25-4.13-6.82,0-10.23,5.12-10.23,15.34v98.92c0,5.82.72,10.23,2.14,13.22,1.43,2.99,4.04,4.49,7.85,4.49s6.1-1.57,7.37-4.72Z"></path>
    </g>
    <path class="cls-1" d="M282.5.36h104.61c31.64,0,54.22,10.22,67.74,30.64,13.51,20.43,20.28,50.31,20.28,89.63s-5.99,68.97-17.97,88.94c-11.98,19.98-33.49,29.95-64.51,29.95h-32.26v156.67h-77.88V.36ZM364.99,168.09c9.52,0,16.51-1.76,20.97-5.3,4.45-3.53,7.37-8.6,8.76-15.21,1.38-6.6,2.07-16.05,2.07-28.34,0-16.59-1.84-28.57-5.53-35.94-3.69-7.37-11.06-11.06-22.12-11.06h-8.76v95.85h4.61Z"></path>
    <path class="cls-1" d="M500,.36h121.66c19.35,0,34.33,4.38,44.93,13.13,10.6,8.75,17.74,21.04,21.43,36.86,3.69,15.83,5.53,36.02,5.53,60.6,0,22.43-2.93,39.94-8.76,52.53-5.84,12.6-15.98,21.35-30.41,26.27,11.98,2.46,20.66,8.45,26.03,17.97,5.37,9.53,8.07,22.43,8.07,38.71l-.92,149.76h-77.42v-154.83c0-11.06-2.15-18.12-6.45-21.2-4.31-3.07-12.14-4.61-23.5-4.61v180.64h-80.18V.36ZM599.53,146.9c11.06,0,16.59-11.98,16.59-35.94,0-10.44-.46-18.28-1.38-23.5-.92-5.22-2.61-8.83-5.07-10.83-2.46-1.99-5.99-2.99-10.6-2.99h-18.43v73.27h18.89Z"></path>
    <path class="cls-1" d="M719.8,396.2V.36h81.56l36.4,189.39V.36h76.5v395.84h-77.42l-39.63-198.15v198.15h-77.42Z"></path>
    <path class="cls-1" d="M983.37,396.2V76.4h-47V.36h173.26v76.04h-47v319.8h-79.26Z"></path>
    <path class="cls-1" d="M1131.75.36h121.66c19.35,0,34.33,4.38,44.93,13.13,10.6,8.75,17.74,21.04,21.43,36.86,3.69,15.83,5.53,36.02,5.53,60.6,0,22.43-2.93,39.94-8.76,52.53-5.84,12.6-15.98,21.35-30.41,26.27,11.98,2.46,20.66,8.45,26.03,17.97,5.37,9.53,8.07,22.43,8.07,38.71l-.92,149.76h-77.42v-154.83c0-11.06-2.15-18.12-6.45-21.2-4.31-3.07-12.14-4.61-23.5-4.61v180.64h-80.18V.36ZM1231.29,146.9c11.06,0,16.59-11.98,16.59-35.94,0-10.44-.46-18.28-1.38-23.5-.92-5.22-2.61-8.83-5.07-10.83-2.46-1.99-5.99-2.99-10.6-2.99h-18.43v73.27h18.89Z"></path>
    <path class="cls-1" d="M125.11,0c-16.76,18.57-29.95,35.65-39.92,49.55-21.49,29.98-34.63,54.53-44.05,72.27-15.63,29.44-21.87,46.16-24.09,52.31-2.96,8.21-6.85,20.01-10.32,34.41-2.32,9.62-4.28,17.71-5.51,28.91-.87,7.94-2.26,21.33,0,38.54,1.86,14.2,5.37,24.57,7.57,30.97,6.97,20.26,15.82,34.01,17.89,37.17,7.95,12.11,14.66,22.34,27.53,30.97,8.37,5.62,17.2,9.11,25.47,12.39,8.27,3.28,15.43,5.46,20.65,6.88,6,1.19,14.49,2.61,24.78,3.44,11.99.97,25.69-.74,35.1-3.44,11.6-3.33,14.35-4.06,25.47-8.95,7.68-3.38,19.71-10.96,32.35-24.09,9.35-9.72,14.89-18.72,17.21-22.71,2.97-5.11,8.38-14.6,11.7-28.22,2.85-11.69,2.8-20.84,2.75-28.91-.03-5.55-.14-15.2-2.75-27.53-1.4-6.59-3.95-14.77-11.01-27.53-4.17-7.55-6.09-12.01-17.89-27.04-9.3-11.84-15.69-20.86-22.71-30.78-10.06-14.2-16.06-22.67-23.4-35.1-1.84-3.11-9.83-16.76-18.58-35.79-3.55-7.72-8.59-19.29-13.77-33.72-4.41-12.3-7.62-21.24-10.32-33.72-2.69-12.42-3.71-22.94-4.13-30.28Z"></path>
  </g>
</svg>