<svg id="Layer_1" data-name="Layer 1" xmlns="http://www.w3.org/2000/svg" viewBox="0 0 288.99 178.36"><defs></defs><path class="cls-1" d="M3.17,41.68c.25-.91,4.56-3,5.39-3.19a.75.75,0,0,1,.79.42c.05.28-.38,2.52-.58,3.71-4.9,27.65-4.72,72.3-4.27,74.65.08.42.38.5.52.48,1.65-.32,12-29.59,15.14-39.11,3.45-10.43,4.61-14.1,4.3-15.76-.08-.42-1-2.12-1-2.26-.26-1.38,4.27-4.55,5.79-4.84.55-.1,1,.09,1.18.92l1.12,6.68a125.72,125.72,0,0,0,9.78,26c5.71,10.55,8.86,12.1,13.27,11.25,7-1.35,9.92-11.67,7.85-22.62C59.53,62.61,49,50.7,44.72,51.52c-.27,0-1.44.7-1.71.76-.55.1-2.8-1.19-3.17-3.13-.26-1.39.77-2,2-2.25C52.59,44.83,65.23,64.82,67.6,77.3c2.31,12.19-2.62,25.35-13.23,27.39-8.68,1.66-13.54-5.88-16.84-12-2.79-4.92-3.14-6-9.62-22.87-1.48,3.45-14.23,39.37-17.46,46.46-3.62,8-5.08,8.58-7.15,9a2,2,0,0,1-2.76-1.77C.49,123.21-.93,103,1.05,72Z"></path><path class="cls-1" d="M88,66.5c0-.24-.35-1.88-1.75-1.61-3,.58-4.41,10.43-4.2,16,3.86-3.77,6.46-11.67,6-14.36m1.44,26c3.61-.69,7.15-4.88,9.12-7.2.59-.72,1.76-2.16,2.46-2.29a.92.92,0,0,1,1,.78c.18.93-.58,2.05-1.73,3.6-4.53,6-7.8,7.8-10.82,8.38-7.21,1.39-9.61-5.55-10.37-9.53-1.55-8.19-.55-23.3,7.47-24.83,1.51-.29,4,0,4.61,3.36,1,5.14-2.07,13.85-8.39,19.92.52,4,2.47,8.62,6.66,7.81"></path><path class="cls-1" d="M121.49,67c-.7.14-.84,0-2.42-2-2.35-2.82-7.19-3.59-8.82-3.28-.35.07-1.14.34-1,1,.27,1.41,7.65,9.21,9.44,11,7,6.79,8.16,8,8.62,10.47.55,2.93-1.44,5.73-5.51,6.52-8.14,1.56-18.09-3.2-19.11-8.59-.46-2.45,1.08-3.84,2.13-4a1,1,0,0,1,1.22.74c.09.46-.25,2.47-.19,2.82.8,4.21,10.74,7,15.39,6.14,2.21-.42,2.71-1.61,2.58-2.31-.31-1.64-5.86-7.37-7.77-9.18-8.61-8.54-10.84-10.78-11.35-13.47-.34-1.75.37-3.1,3.28-3.66,6.63-1.27,14.38,2.09,15.44,5.16.36,1.27-1.34,2.44-1.92,2.55"></path><path class="cls-1" d="M134.06,47.47c-.14-.7-1-3.82-1.1-4.51-.42-2.23,2.89-3.84,3.36-3.93,1.16-.22,1.36.83,1.43,1.19L138.2,47c.14,2,.84,7,1.28,9.94,1.7-1.17,6.87-5.07,10.24-5.72.35-.07,1.16-.22,1.3.48.26,1.4-2.29,3.83-2.64,3.9s-1.09,0-1.32,0c-1.16.22-4.9,2.76-7.08,4.63a138.52,138.52,0,0,0,3.39,15.36c.89,2.74,1.89,6.79,5.15,6.17,2.44-.48,3.66-4.22,3.95-5.25.78-2.21.86-2.47,1.55-2.6s1.18.5,1.29,1.08c.34,1.76-1.84,8.72-7.19,9.75-4.88.94-6.56-4.08-7.75-7.85-1.45-4.45-2.54-9.58-3.52-14.12-.84.65-6,5.65-6.16,5.67-.7.14-1.62-.9-1.77-1.72-.07-.35,0-.61.61-1.21,3.49-3.22,5-4.6,6.81-6Z"></path><path class="cls-1" d="M180,43.52c.35-.07,1.51-.29,1.62.29a3.07,3.07,0,0,1-.27,1.75,9.23,9.23,0,0,1-2.71,2.22c-.23,0-1.62-.3-1.85-.25-1.29.24-5.37,2.24-8.71,4.95,2,9.31,5.14,22.66,8,30.83,3.86,10.79,7.26,12.2,8.89,11.88.46-.09,2.07-1.12,2.42-1.19a.85.85,0,0,1,1.09.64c.13.7-1.12,2.4-3.33,2.82-7.79,1.5-12.36-11.81-13.63-15.33-3.23-9.44-6.45-24.47-7-27.28-.82.76-5.89,5.13-6.24,5.2a2.18,2.18,0,0,1-2.06-1.3c-.13-.71.08-.87,7.7-7.06-1.28-6.79-2.56-14.18-1-20.54.63-2.43,1.89-6.56,6-7.33.47-.09,2.49-.24,2.8,1.4s-.93,3.33-1.51,3.44c-.24.05-1.14-.26-1.37-.22-1.51.29-4.3,5.31-1.33,21,3.51-2.49,8.78-5.2,12.5-5.91"></path><path class="cls-1" d="M193,49.27a1,1,0,0,1-.76-.22c-1-.55-1.11-.76-1.81-.63-1.51.29-3.74,5.09-2.54,11.41,1.62,8.54,7,11.74,11,11,4.3-.83,8.56-7,7.19-14.23-1.29-6.79-6.12-11.93-11.45-10.18,0,1.34-.7,2.68-1.63,2.87m3.28-6.21c4.89-.94,11.66,3,13.21,11.16,1.37,7.26-2,18.59-11.21,20.35C191,76,186,69.53,184.55,62c-1.69-8.9,2.28-17.18,7-18.09a2.29,2.29,0,0,1,1.9.48,5.51,5.51,0,0,1,2.75-1.37"></path><path class="cls-1" d="M229.72,39.67c1.68-3.24,4.21-6.39,6.77-6.88a3.76,3.76,0,0,1,4.36,3.28,2.08,2.08,0,0,1-1.69,2.51,2.46,2.46,0,0,1-2.55-1.33c-.55-1-.57-1.1-.92-1s-2.52,1.95-4.61,6.83a28,28,0,0,0-1.89,14.19,27.09,27.09,0,0,0,2.13,6.14s1.14,2.2,1.18,2.44c.16.82-.81,2.71-1.86,2.9C229,69,228.58,68,227,64.81c-4-8.45-9.35-16.28-11.36-18-.41-.28-2.15-1.16-2.21-1.51-.18-.94,2.09-3,3.14-3.15,1.39-.27,2.38,1.12,3.57,3,.91,1.64,4.8,8.78,5.67,10.19.58-5.81,1.06-10.27,3.9-15.66"></path><path class="cls-1" d="M262.23,33.79c-2.44.47-6.87,7-9.24,12.93-2.11,5.38-3.21,11.66-2.86,13.53.11.58.34,1.15,1,1,3.48-.67,14.06-20.53,13-25.91-.09-.47-.7-1.8-2-1.56m2.95-21.3A96.26,96.26,0,0,0,267,25.61c2.5,13.22,5.11,20,6.72,24.06,1.55,3.7,3.12,7.52,5.33,7.1,1.05-.2,1.28-.25,1.39.34A3.05,3.05,0,0,1,278,59.75c-3.26.62-5.29-3.72-6.47-6.16a98.55,98.55,0,0,1-4.8-13.87c-2.65,10.82-11.53,24.4-16.41,25.34-1.75.33-2.92-.77-3.25-2.53-1.8-9.48,7.77-30.84,15.56-32.33a2.45,2.45,0,0,1,1.86.25c-1.39-6.05-2.77-12.08-3.93-18.17-.51-2.69-.58-3,.25-3.81a4.08,4.08,0,0,1,2.38-1.42c.58-.11,1.65-.2,1.78.51Z"></path><path class="cls-1" d="M234.66,144.09a8.54,8.54,0,0,0,3.63-1.9,3.1,3.1,0,0,1,1.09-.61.87.87,0,0,1,.94.76c.34,1.81-2.91,4.31-6.25,4.95-17,3.26-24-35.88-25.31-43.54-4.37,9.28-10.08,33.3-9.63,44.08,0,.13.55.83.58,1s-2,5.07-2.48,5.17-7.28-4.64-26.93-38c-.23,55-24.72,61.45-28.32,62.14-10.93,2.1-20.12-9.14-20.91-13.28-.42-2.2.76-3.77,3.2-4.23,1.41-.28,2.77-.13,3,1.29a1.25,1.25,0,0,1-.65,1.46c-1.11.48-1.73.74-1.56,1.64.66,3.49,8.57,11.5,16.67,9.94,9.9-1.9,19.13-15.06,22.13-31.59,1.16-6.53,3.55-24.14,1.95-32.55a14,14,0,0,0-3.07-6.39c-.22-.49-1.64-2.36-1.69-2.62-.22-1.16,3.11-4,3.88-4.1s1,.22,2.49,3.28c9,16.51,17.83,32.91,27.49,43.12,1.05-14.14,6.92-33.77,12.22-46.58-.29-1.56-1.84-9.7-1.26-10.89s4.1-2.26,4.23-2.28a.89.89,0,0,1,1.07.73c.25,1.29-.33,5.29,2.61,20.81,1.6,8.41,4.94,24.66,11.93,33.37,3.83,4.77,7.11,5.21,8.91,4.86"></path><path class="cls-1" d="M250.14,141.58c1.92,0,1.92,0,2,.58.26,1.41-1.82,2.53-3,2.76-3.26.62-4.73-3.34-5.39-4.91a97.6,97.6,0,0,1-3.91-14.9c-.35-1.87-1.46-7.72-.62-9a5.81,5.81,0,0,1,3-2.15,1.1,1.1,0,0,1,1.36.83,27.13,27.13,0,0,1-.31,3.46,47.8,47.8,0,0,0,1,10.59c.58,3,2.56,12.85,5.79,12.71m-9-37c0,.24.43,1,.47,1.25.09.47-.27,1.14-1.54,1.39-1.75.33-2.3,0-3.83-8.12-.27-1.41.37-2.5,3-3,.47-.09,1.09,0,1.18.5a12.74,12.74,0,0,1-.16,2.94,14.16,14.16,0,0,0,.29,2.86,13.76,13.76,0,0,0,.55,2.19"></path><path class="cls-1" d="M268.56,140.23c-4.07.78-6.48-3-8.94-10.29a190.29,190.29,0,0,1-5.51-22.71c-.18-.94-2.06-10.88-1.38-12.35.43-.93,2.51-2.06,3.44-2.23a1,1,0,0,1,1.24.85c.16.82,0,4.48,0,5.21a113.92,113.92,0,0,0,1.95,16c1,5.16,4.14,20,7.63,22.43a4.11,4.11,0,0,0,3.13.62c.6,0,.67.35.71.59.14.7-.9,1.62-2.29,1.89"></path><path class="cls-1" d="M283.68,137.33c-4.07.78-6.48-3-8.94-10.29a190.29,190.29,0,0,1-5.51-22.71c-.18-.94-2.07-10.88-1.38-12.35.43-.93,2.51-2,3.43-2.23a1,1,0,0,1,1.25.85c.16.81,0,4.48,0,5.21a112.63,112.63,0,0,0,1.95,16c1,5.15,4.14,20,7.63,22.43a4.06,4.06,0,0,0,3.13.61c.6,0,.67.36.71.59.13.71-.9,1.63-2.29,1.9"></path><path class="cls-1" d="M281.22,4.32h.63c1,0,1.47.3,1.47,1s-.45,1-1.36,1h-.74ZM279.13,3v7.65h2.09V7.6h.61l1.42,3.05h2.3l-1.69-3.37a2.1,2.1,0,0,0,1.62-2.06c0-1.44-1.11-2.22-3.29-2.22Zm2.92-3a6.67,6.67,0,0,0-4.8,2,7,7,0,0,0-2.11,5,6.9,6.9,0,0,0,2,4.85A6.78,6.78,0,0,0,282.05,14a7.06,7.06,0,0,0,4.89-2A6.76,6.76,0,0,0,289,7a6.91,6.91,0,0,0-6.94-7m0,1.26A5.56,5.56,0,0,1,286.14,3a5.62,5.62,0,0,1,1.59,4A5.57,5.57,0,0,1,286.06,11a5.67,5.67,0,0,1-4,1.64,5.51,5.51,0,0,1-4-1.73,5.59,5.59,0,0,1-1.61-4,5.74,5.74,0,0,1,1.71-4.11,5.51,5.51,0,0,1,3.95-1.6"></path></svg>